<?xml version="1.0" encoding="iso-8859-1"?>
<!-- Generator: Adobe Illustrator 16.0.0, SVG Export Plug-In . SVG Version: 6.00 Build 0)  -->
<!DOCTYPE svg PUBLIC "-//W3C//DTD SVG 1.1//EN" "http://www.w3.org/Graphics/SVG/1.1/DTD/svg11.dtd">
<svg version="1.1" id="Capa_1" xmlns="http://www.w3.org/2000/svg" xmlns:xlink="http://www.w3.org/1999/xlink" x="0px" y="0px"
	 width="434.944px" height="434.944px" viewBox="0 0 434.944 434.944" style="enable-background:new 0 0 434.944 434.944;"
	 xml:space="preserve">
<g>
	<path d="M434.457,318.667c-5.49-20.83-22.217-20.605-73.275-44.702c-43.777-20.663-78.986-56.523-96.183-76.196
		c-6.548-7.498-15.673-13.921-29.479-13.921h-11.177l0.052-20.071c0.516-0.748,3.018-2.276,4.677-3.282
		c6.532-3.981,17.448-10.644,17.448-26.702c0-16.414-13.344-29.769-29.759-29.769c-16.41,0-29.761,13.355-29.761,29.769
		c0,4.336,3.514,7.851,7.851,7.851c4.33,0,7.848-3.514,7.848-7.851c0-7.754,6.304-14.068,14.062-14.068
		c7.746,0,14.059,6.313,14.059,14.068c0,6.911-3.587,9.43-9.923,13.301c-5.063,3.094-11.986,7.313-11.986,15.944v20.811h-9.476
		c-12.788,0-22.916,6.416-29.462,13.921c-17.204,19.672-52.411,55.533-96.182,76.196c-51.062,24.097-67.79,23.852-73.302,44.719
		c-2.543,9.638,5.22,14.879,14.342,10.892c31.432-13.705,102.794-47.476,173.594-99.163c0,0,13.513-11.518,28.028-11.518h2.04
		c14.527,0,28.027,11.518,28.027,11.518c70.815,51.688,142.168,85.458,173.599,99.163
		C429.243,333.539,436.994,328.297,434.457,318.667z"/>
</g>
<g>
</g>
<g>
</g>
<g>
</g>
<g>
</g>
<g>
</g>
<g>
</g>
<g>
</g>
<g>
</g>
<g>
</g>
<g>
</g>
<g>
</g>
<g>
</g>
<g>
</g>
<g>
</g>
<g>
</g>
</svg>
