<?xml version="1.0" standalone="no"?>
<!DOCTYPE svg PUBLIC "-//W3C//DTD SVG 20010904//EN"
 "http://www.w3.org/TR/2001/REC-SVG-20010904/DTD/svg10.dtd">
<svg version="1.0" xmlns="http://www.w3.org/2000/svg"
 width="96.000000pt" height="96.000000pt" viewBox="0 0 96.000000 96.000000"
 preserveAspectRatio="xMidYMid meet">
<metadata>
Created by potrace 1.15, written by Peter Selinger 2001-2017
</metadata>
<g transform="translate(0.000000,96.000000) scale(0.100000,-0.100000)"
stroke="none">
<path d="M180 860 c-11 -11 -20 -29 -20 -40 0 -20 7 -20 320 -20 313 0 320 0
320 20 0 11 -9 29 -20 40 -19 19 -33 20 -300 20 -267 0 -281 -1 -300 -20z"/>
<path d="M140 740 c-19 -19 -20 -33 -20 -220 0 -193 -1 -200 -20 -200 -19 0
-20 -7 -20 -100 0 -152 -34 -140 400 -140 434 0 400 -12 400 140 0 93 -1 100
-20 100 -19 0 -20 7 -20 200 0 187 -1 201 -20 220 -19 19 -33 20 -340 20 -307
0 -321 -1 -340 -20z m620 -240 l0 -180 -40 0 -39 0 -3 63 c-3 60 -4 63 -39 82
-36 19 -38 19 -78 1 l-40 -19 -75 57 c-42 31 -79 56 -83 56 -4 0 -24 -17 -45
-37 -38 -37 -38 -37 -38 -120 l0 -83 -40 0 -40 0 0 180 0 180 280 0 280 0 0
-180z m40 -300 l0 -40 -320 0 -320 0 0 40 0 40 320 0 320 0 0 -40z"/>
</g>
</svg>
